hpl_overground_slow_walk_RRA_states
nRows=6
nColumns=47

# SIMM Motion File Header:
name hpl_overground_slow_walk_RRA_states
datacolumns 47
datarows 6
otherdata 1
range 0.66150000000000020000 0.66400000000000026000
endheader
time	pelvis_tx	pelvis_ty	pelvis_tz	pelvis_tilt	pelvis_list	pelvis_rotation	hip_flexion_r	hip_adduction_r	hip_rotation_r	knee_angle_r	ankle_angle_r	subtalar_angle_r	mtp_angle_r	hip_flexion_l	hip_adduction_l	hip_rotation_l	knee_angle_l	ankle_angle_l	subtalar_angle_l	mtp_angle_l	lumbar_extension	lumbar_bending	lumbar_rotation	pelvis_tx_u	pelvis_ty_u	pelvis_tz_u	pelvis_tilt_u	pelvis_list_u	pelvis_rotation_u	hip_flexion_r_u	hip_adduction_r_u	hip_rotation_r_u	knee_angle_r_u	ankle_angle_r_u	subtalar_angle_r_u	mtp_angle_r_u	hip_flexion_l_u	hip_adduction_l_u	hip_rotation_l_u	knee_angle_l_u	ankle_angle_l_u	subtalar_angle_l_u	mtp_angle_l_u	lumbar_extension_u	lumbar_bending_u	lumbar_rotation_u
      0.66150000000000020000	     -0.84505421441812101000	      0.93809201631267203000	     -0.24077915463124422000	     19.99156851415928700000	      4.11205536869062450000	     -5.06915072631497750000	     -0.84868300242851402000	     -7.80042154478060020000	      2.89921537192103830000	    -65.30839704035513200000	      2.35766596989745870000	     -0.00000000000000116293	      0.00000000000000124017	    -13.90560506704537700000	      8.28108003027994320000	      4.03075705087174270000	    -14.61135047759924500000	      6.31077673747913530000	     -0.00000000000000329523	      0.00000000000010430166	    -29.70840341689880400000	     -6.54848979972869840000	      2.33829203326781250000	      1.55703717982373410000	     -0.05248888869137752200	     -0.20076039149739949000	     24.47220194639079300000	    -41.44309345119763300000	     74.25506654046920100000	     94.90498070449912400000	     67.51463625644078100000	    -73.32164235924682300000	    157.62081343450737000000	    135.33305715183403000000	     -0.00000000000001745396	     -0.00000000000000459664	   -237.37682129503347000000	    -53.42727755740985200000	     73.41473875228051300000	    179.68754399527234000000	    -16.02829248745193500000	      0.00000000000006307848	      0.00000000000061394495	    -32.76323469069713900000	     79.25951003722569500000	    -63.78304552078950000000
      0.66200000000000025000	     -0.84427573508204501000	      0.93806539097979247000	     -0.24087957305222993000	     20.00380327098304200000	      4.09133924813678900000	     -5.03193542455924000000	     -0.80138732863413309000	     -7.76669468752151900000	      2.86240999848553870000	    -65.22918326519274500000	      2.42490344107524790000	     -0.00000000000000117150	      0.00000000000000123791	    -14.02429892635595700000	      8.25427818310533470000	      4.06744724274074980000	    -14.52143407439149300000	      6.30269103187344280000	     -0.00000000000000326296	      0.00000000000010461124	    -29.72477987082729100000	     -6.50882850694502310000	      2.30635877570161090000	      1.55687994667952050000	     -0.05401500914838390500	     -0.20091319393507268000	     24.46642250158299300000	    -41.42100323909014000000	     74.60549178959016100000	     94.27829707746698800000	     67.39230295672739100000	    -73.89866475194259000000	    159.23366733604755000000	    133.61748058340294000000	     -0.00000000000001617010	     -0.00000000000000548009	   -237.39788435129870000000	    -53.77978874419042700000	     73.34457757589662200000	    179.97762571101481000000	    -16.31429417736643100000	      0.00000000000006196522	      0.00000000000060675119	    -32.74204265753581900000	     79.38511615562238400000	    -63.94959885890762800000
      0.66250000000000020000	     -0.84349733465636367000	      0.93803799872141291000	     -0.24098006775660885000	     20.01603452037644400000	      4.07063472186071260000	     -4.99454585804154230000	     -0.75440412888379860000	     -7.73302969325034000000	      2.82531787472185410000	    -65.14916396419042100000	      2.49128413552174120000	     -0.00000000000000117948	      0.00000000000000123503	    -14.14300223603209600000	      8.22730053645814510000	      4.10410027709135150000	    -14.43137324911201500000	      6.29446341003269700000	     -0.00000000000000323438	      0.00000000000010491761	    -29.74114490792021900000	     -6.46910518752050030000	      2.27434281344331040000	      1.55672160433650860000	     -0.05555662135937312900	     -0.20106558495420068000	     24.45814499212970700000	    -41.39677516364890400000	     74.95217586174312900000	     93.65507334556686200000	     67.26726195258685000000	    -74.46868133384821000000	    160.84297228673992000000	    131.90601630831137000000	     -0.00000000000001534351	     -0.00000000000000575840	   -237.41465482735944000000	    -54.13053062322081400000	     73.26630904358835000000	    180.26532307020821000000	    -16.59446902594580600000	      0.00000000000005174598	      0.00000000000065031529	    -32.71754042870229300000	     79.50769914120353100000	    -64.11387775776138700000
      0.66300000000000026000	     -0.84271901365299295000	      0.93800983179241970000	     -0.24108063856290263000	     20.02826099435935300000	      4.04994282931754150000	     -4.95698387479953160000	     -0.70773168011965149000	     -7.69942787186990520000	      2.78794248997562290000	    -65.06834086404160200000	      2.55681017023200810000	     -0.00000000000000118714	      0.00000000000000123187	    -14.26171286279517300000	      8.20014795122868460000	      4.14071220164234610000	    -14.34116915171692100000	      6.28609757660224840000	     -0.00000000000000320274	      0.00000000000010522853	    -29.75749685463174300000	     -6.42932131361842710000	      2.24224527696137520000	      1.55656221072022550000	     -0.05711362827201180200	     -0.20121753004734494000	     24.44733758363072300000	    -41.37040940918754500000	     75.29510295998791500000	     93.03530152198557300000	     67.13954381840046900000	    -75.03166020244260900000	    162.44884841616653000000	    130.19883124522605000000	     -0.00000000000001519397	     -0.00000000000000585100	   -237.42711501558193000000	    -54.47947958754482300000	     73.17994018572365200000	    180.55061738622646000000	    -16.86853528315905100000	      0.00000000000007861487	      0.00000000000060160845	    -32.68969830643658300000	     79.62724747381565700000	    -64.27588220467292500000
      0.66350000000000020000	     -0.84194077261269562000	      0.93798088254971257000	     -0.24118128520601584000	     20.04048143302130900000	      4.02926467178034200000	     -4.91925138478290870000	     -0.66136825525033405000	     -7.66589059473262320000	      2.75028739261975860000	    -64.98671566683231000000	      2.62148370639996650000	     -0.00000000000000119467	      0.00000000000000122893	    -14.38042863044621800000	      8.17282136264084260000	      4.17727886633655030000	    -14.25082303499638700000	      6.27759582051422970000	     -0.00000000000000316577	      0.00000000000010553847	    -29.77383404671217800000	     -6.38947845125762640000	      2.21006730939545280000	      1.55640181514172780000	     -0.05868589477154559400	     -0.20136899130275673000	     24.43398020920432900000	    -41.34188826717542800000	     75.63425176478175200000	     92.41896342746552800000	     67.00915472552114200000	    -75.58756997850881000000	    164.05141628532735000000	    128.49608601819861000000	     -0.00000000000001496991	     -0.00000000000000459548	   -237.43525126295785000000	    -54.82659413691141700000	     73.08546642389707400000	    180.83349116040748000000	    -17.13690149859550600000	      0.00000000000006267035	      0.00000000000066270592	    -32.65849874472919400000	     79.74372908429447200000	    -64.43561747750138100000
      0.66400000000000026000	     -0.84116261199569142000	      0.93795114337239727000	     -0.24128200746749892000	     20.05269454459909200000	      4.00860130067786090000	     -4.88135025509732670000	     -0.61531214624720865000	     -7.63241915788380790000	      2.71235610291856720000	    -64.90428997863517700000	      2.68530702251516780000	     -0.00000000000000120201	      0.00000000000000122663	    -14.49914739032986200000	      8.14532166738725570000	      4.21379631907681150000	    -14.16033606812801600000	      6.26896167249037540000	     -0.00000000000000313854	      0.00000000000010588522	    -29.79015478921656900000	     -6.34957809796343220000	      2.17781003726921170000	      1.55624047306992840000	     -0.06027331191682027600	     -0.20151993169601723000	     24.41804261011710500000	    -41.31121021075657800000	     75.96960792212507800000	     91.80604907305544800000	     66.87612252748550600000	    -76.13638140271940800000	    165.65079688194615000000	    126.79794046181615000000	     -0.00000000000001360674	     -0.00000000000000417521	   -237.43904531786453000000	    -55.17184741413522200000	     72.98289920974393400000	    181.11392049241283000000	    -17.39927107612609100000	      0.00000000000002332642	      0.00000000000075182036	    -32.62391386471325200000	     79.85713081602676800000	    -64.59308551097666400000
